<mxfile host="Electron" modified="2023-06-30T15:19:17.357Z" agent="Mozilla/5.0 (Macintosh; Intel Mac OS X 10_15_7) AppleWebKit/537.36 (KHTML, like Gecko) draw.io/21.5.1 Chrome/112.0.5615.204 Electron/24.6.0 Safari/537.36" etag="uZNqErXPEMfPfYEcuttd" version="21.5.1" type="device">
  <diagram name="Page-1" id="fBL3ggkLG7DSMnmJ8-KJ">
    <mxGraphModel dx="1114" dy="999" grid="1" gridSize="10" guides="1" tooltips="1" connect="1" arrows="1" fold="1" page="1" pageScale="1" pageWidth="850" pageHeight="1100" math="0" shadow="0">
      <root>
        <mxCell id="0" />
        <mxCell id="1" parent="0" />
        <mxCell id="CFwJvhHbsTwOAoUFKaDR-15" style="edgeStyle=orthogonalEdgeStyle;rounded=0;sketch=1;hachureGap=4;jiggle=2;curveFitting=1;orthogonalLoop=1;jettySize=auto;html=1;exitX=0.5;exitY=0.5;exitDx=0;exitDy=0;exitPerimeter=0;entryX=0;entryY=0.5;entryDx=0;entryDy=0;fontFamily=Architects Daughter;fontSource=https%3A%2F%2Ffonts.googleapis.com%2Fcss%3Ffamily%3DArchitects%2BDaughter;fontSize=16;strokeWidth=3;" parent="1" source="CFwJvhHbsTwOAoUFKaDR-1" target="CFwJvhHbsTwOAoUFKaDR-8" edge="1">
          <mxGeometry relative="1" as="geometry" />
        </mxCell>
        <mxCell id="CFwJvhHbsTwOAoUFKaDR-1" value="&lt;font size=&quot;1&quot; face=&quot;FZJingLeiS-R-GB&quot;&gt;&lt;b style=&quot;font-size: 28px;&quot;&gt;PROGRAMMER&lt;/b&gt;&lt;/font&gt;" style="shape=umlActor;verticalLabelPosition=bottom;verticalAlign=top;html=1;outlineConnect=0;sketch=1;hachureGap=4;jiggle=2;curveFitting=1;fontFamily=Architects Daughter;fontSource=https%3A%2F%2Ffonts.googleapis.com%2Fcss%3Ffamily%3DArchitects%2BDaughter;fontSize=20;strokeWidth=3;fillColor=#dae8fc;strokeColor=#6c8ebf;" parent="1" vertex="1">
          <mxGeometry x="160" y="260" width="40" height="80" as="geometry" />
        </mxCell>
        <mxCell id="CFwJvhHbsTwOAoUFKaDR-11" style="edgeStyle=orthogonalEdgeStyle;rounded=0;sketch=1;hachureGap=4;jiggle=2;curveFitting=1;orthogonalLoop=1;jettySize=auto;html=1;exitX=0.5;exitY=1;exitDx=0;exitDy=0;exitPerimeter=0;entryX=0.25;entryY=0;entryDx=0;entryDy=0;fontFamily=Architects Daughter;fontSource=https%3A%2F%2Ffonts.googleapis.com%2Fcss%3Ffamily%3DArchitects%2BDaughter;fontSize=16;strokeWidth=3;" parent="1" source="CFwJvhHbsTwOAoUFKaDR-2" target="CFwJvhHbsTwOAoUFKaDR-8" edge="1">
          <mxGeometry relative="1" as="geometry" />
        </mxCell>
        <mxCell id="CFwJvhHbsTwOAoUFKaDR-2" value="&lt;b&gt;&lt;font style=&quot;font-size: 28px;&quot; face=&quot;FZJingLeiS-R-GB&quot;&gt;USER&lt;/font&gt;&lt;/b&gt;" style="verticalLabelPosition=bottom;verticalAlign=top;html=1;shape=mxgraph.basic.smiley;sketch=1;hachureGap=4;jiggle=2;curveFitting=1;fontFamily=Architects Daughter;fontSource=https%3A%2F%2Ffonts.googleapis.com%2Fcss%3Ffamily%3DArchitects%2BDaughter;fontSize=20;strokeWidth=3;fillColor=#fff2cc;strokeColor=#d6b656;" parent="1" vertex="1">
          <mxGeometry x="310" y="120" width="50" height="50" as="geometry" />
        </mxCell>
        <mxCell id="uyNByUQVHI72EPawwl2X-4" style="edgeStyle=orthogonalEdgeStyle;rounded=0;sketch=1;hachureGap=4;jiggle=2;curveFitting=1;orthogonalLoop=1;jettySize=auto;html=1;entryX=0.5;entryY=1;entryDx=0;entryDy=0;fontFamily=Architects Daughter;fontSource=https%3A%2F%2Ffonts.googleapis.com%2Fcss%3Ffamily%3DArchitects%2BDaughter;fontSize=16;strokeWidth=3;" edge="1" parent="1" source="CFwJvhHbsTwOAoUFKaDR-3" target="uyNByUQVHI72EPawwl2X-1">
          <mxGeometry relative="1" as="geometry" />
        </mxCell>
        <mxCell id="CFwJvhHbsTwOAoUFKaDR-3" value="&lt;font style=&quot;font-size: 28px;&quot; face=&quot;FZJingLeiS-R-GB&quot;&gt;DATABASE&lt;/font&gt;" style="shape=cylinder3;whiteSpace=wrap;html=1;boundedLbl=1;backgroundOutline=1;size=15;sketch=1;hachureGap=4;jiggle=2;curveFitting=1;fontFamily=Architects Daughter;fontSource=https%3A%2F%2Ffonts.googleapis.com%2Fcss%3Ffamily%3DArchitects%2BDaughter;fontSize=20;strokeWidth=3;fillColor=#dae8fc;strokeColor=#6c8ebf;" parent="1" vertex="1">
          <mxGeometry x="345" y="540" width="200" height="90" as="geometry" />
        </mxCell>
        <mxCell id="CFwJvhHbsTwOAoUFKaDR-12" style="edgeStyle=orthogonalEdgeStyle;rounded=0;sketch=1;hachureGap=4;jiggle=2;curveFitting=1;orthogonalLoop=1;jettySize=auto;html=1;exitX=0.5;exitY=1;exitDx=0;exitDy=0;exitPerimeter=0;entryX=0.5;entryY=0;entryDx=0;entryDy=0;fontFamily=Architects Daughter;fontSource=https%3A%2F%2Ffonts.googleapis.com%2Fcss%3Ffamily%3DArchitects%2BDaughter;fontSize=16;strokeWidth=3;" parent="1" source="CFwJvhHbsTwOAoUFKaDR-6" target="CFwJvhHbsTwOAoUFKaDR-8" edge="1">
          <mxGeometry relative="1" as="geometry" />
        </mxCell>
        <mxCell id="CFwJvhHbsTwOAoUFKaDR-6" value="&lt;b&gt;&lt;font style=&quot;font-size: 28px;&quot; face=&quot;FZJingLeiS-R-GB&quot;&gt;USER&lt;/font&gt;&lt;/b&gt;" style="verticalLabelPosition=bottom;verticalAlign=top;html=1;shape=mxgraph.basic.smiley;sketch=1;hachureGap=4;jiggle=2;curveFitting=1;fontFamily=Architects Daughter;fontSource=https%3A%2F%2Ffonts.googleapis.com%2Fcss%3Ffamily%3DArchitects%2BDaughter;fontSize=20;strokeWidth=3;fillColor=#fff2cc;strokeColor=#d6b656;" parent="1" vertex="1">
          <mxGeometry x="420" y="120" width="50" height="50" as="geometry" />
        </mxCell>
        <mxCell id="CFwJvhHbsTwOAoUFKaDR-13" style="edgeStyle=orthogonalEdgeStyle;rounded=0;sketch=1;hachureGap=4;jiggle=2;curveFitting=1;orthogonalLoop=1;jettySize=auto;html=1;exitX=0.5;exitY=1;exitDx=0;exitDy=0;exitPerimeter=0;entryX=0.75;entryY=0;entryDx=0;entryDy=0;fontFamily=Architects Daughter;fontSource=https%3A%2F%2Ffonts.googleapis.com%2Fcss%3Ffamily%3DArchitects%2BDaughter;fontSize=16;strokeWidth=3;" parent="1" source="CFwJvhHbsTwOAoUFKaDR-7" target="CFwJvhHbsTwOAoUFKaDR-8" edge="1">
          <mxGeometry relative="1" as="geometry" />
        </mxCell>
        <mxCell id="CFwJvhHbsTwOAoUFKaDR-7" value="&lt;b&gt;&lt;font style=&quot;font-size: 28px;&quot; face=&quot;FZJingLeiS-R-GB&quot;&gt;USER&lt;/font&gt;&lt;/b&gt;" style="verticalLabelPosition=bottom;verticalAlign=top;html=1;shape=mxgraph.basic.smiley;sketch=1;hachureGap=4;jiggle=2;curveFitting=1;fontFamily=Architects Daughter;fontSource=https%3A%2F%2Ffonts.googleapis.com%2Fcss%3Ffamily%3DArchitects%2BDaughter;fontSize=20;strokeWidth=3;fillColor=#fff2cc;strokeColor=#d6b656;" parent="1" vertex="1">
          <mxGeometry x="530" y="120" width="50" height="50" as="geometry" />
        </mxCell>
        <mxCell id="CFwJvhHbsTwOAoUFKaDR-8" value="&lt;font style=&quot;font-size: 28px;&quot; face=&quot;FZJingLeiS-R-GB&quot;&gt;PROGRAM&lt;/font&gt;" style="swimlane;whiteSpace=wrap;html=1;sketch=1;hachureGap=4;jiggle=2;curveFitting=1;fontFamily=Architects Daughter;fontSource=https%3A%2F%2Ffonts.googleapis.com%2Fcss%3Ffamily%3DArchitects%2BDaughter;fontSize=20;strokeWidth=3;" parent="1" vertex="1">
          <mxGeometry x="310" y="220" width="270" height="160" as="geometry">
            <mxRectangle x="310" y="220" width="120" height="50" as="alternateBounds" />
          </mxGeometry>
        </mxCell>
        <mxCell id="CFwJvhHbsTwOAoUFKaDR-17" value="" style="whiteSpace=wrap;html=1;align=center;sketch=1;hachureGap=4;jiggle=2;curveFitting=1;fontFamily=Architects Daughter;fontSource=https%3A%2F%2Ffonts.googleapis.com%2Fcss%3Ffamily%3DArchitects%2BDaughter;fontSize=20;fillColor=none;" parent="CFwJvhHbsTwOAoUFKaDR-8" vertex="1">
          <mxGeometry x="15" y="40" width="100" height="40" as="geometry" />
        </mxCell>
        <mxCell id="CFwJvhHbsTwOAoUFKaDR-18" value="" style="rounded=1;absoluteArcSize=1;html=1;arcSize=10;sketch=1;hachureGap=4;jiggle=2;curveFitting=1;fontFamily=Architects Daughter;fontSource=https%3A%2F%2Ffonts.googleapis.com%2Fcss%3Ffamily%3DArchitects%2BDaughter;fontSize=20;fillColor=none;" parent="CFwJvhHbsTwOAoUFKaDR-8" vertex="1">
          <mxGeometry x="150" y="40" width="100" height="100" as="geometry" />
        </mxCell>
        <mxCell id="CFwJvhHbsTwOAoUFKaDR-19" value="main" style="html=1;shape=mxgraph.er.anchor;whiteSpace=wrap;sketch=1;hachureGap=4;jiggle=2;curveFitting=1;fontFamily=Architects Daughter;fontSource=https%3A%2F%2Ffonts.googleapis.com%2Fcss%3Ffamily%3DArchitects%2BDaughter;fontSize=20;" parent="CFwJvhHbsTwOAoUFKaDR-18" vertex="1">
          <mxGeometry width="50" height="100" as="geometry" />
        </mxCell>
        <mxCell id="CFwJvhHbsTwOAoUFKaDR-20" value="sub" style="rounded=1;absoluteArcSize=1;html=1;arcSize=10;whiteSpace=wrap;points=[];strokeColor=inherit;fillColor=inherit;sketch=1;hachureGap=4;jiggle=2;curveFitting=1;fontFamily=Architects Daughter;fontSource=https%3A%2F%2Ffonts.googleapis.com%2Fcss%3Ffamily%3DArchitects%2BDaughter;fontSize=20;" parent="CFwJvhHbsTwOAoUFKaDR-18" vertex="1">
          <mxGeometry x="50" y="5" width="45" height="90" as="geometry" />
        </mxCell>
        <mxCell id="CFwJvhHbsTwOAoUFKaDR-21" value="" style="ellipse;whiteSpace=wrap;html=1;aspect=fixed;sketch=1;hachureGap=4;jiggle=2;curveFitting=1;fontFamily=Architects Daughter;fontSource=https%3A%2F%2Ffonts.googleapis.com%2Fcss%3Ffamily%3DArchitects%2BDaughter;fontSize=20;fillColor=none;" parent="CFwJvhHbsTwOAoUFKaDR-8" vertex="1">
          <mxGeometry x="20" y="90" width="60" height="60" as="geometry" />
        </mxCell>
        <mxCell id="uyNByUQVHI72EPawwl2X-3" style="edgeStyle=orthogonalEdgeStyle;rounded=0;sketch=1;hachureGap=4;jiggle=2;curveFitting=1;orthogonalLoop=1;jettySize=auto;html=1;exitX=0.5;exitY=0.5;exitDx=0;exitDy=0;exitPerimeter=0;entryX=1;entryY=0.5;entryDx=0;entryDy=0;fontFamily=Architects Daughter;fontSource=https%3A%2F%2Ffonts.googleapis.com%2Fcss%3Ffamily%3DArchitects%2BDaughter;fontSize=16;strokeWidth=3;" edge="1" parent="1" source="CFwJvhHbsTwOAoUFKaDR-9" target="uyNByUQVHI72EPawwl2X-1">
          <mxGeometry relative="1" as="geometry" />
        </mxCell>
        <mxCell id="CFwJvhHbsTwOAoUFKaDR-9" value="&lt;font face=&quot;FZJingLeiS-R-GB&quot;&gt;&lt;span style=&quot;font-size: 28px;&quot;&gt;&lt;b&gt;ADMIN&lt;/b&gt;&lt;/span&gt;&lt;/font&gt;" style="shape=umlActor;verticalLabelPosition=bottom;verticalAlign=top;html=1;outlineConnect=0;sketch=1;hachureGap=4;jiggle=2;curveFitting=1;fontFamily=Architects Daughter;fontSource=https%3A%2F%2Ffonts.googleapis.com%2Fcss%3Ffamily%3DArchitects%2BDaughter;fontSize=20;strokeWidth=3;fillColor=#ffe6cc;strokeColor=#d79b00;" parent="1" vertex="1">
          <mxGeometry x="770" y="230" width="40" height="80" as="geometry" />
        </mxCell>
        <mxCell id="uyNByUQVHI72EPawwl2X-5" style="edgeStyle=orthogonalEdgeStyle;rounded=0;sketch=1;hachureGap=4;jiggle=2;curveFitting=1;orthogonalLoop=1;jettySize=auto;html=1;exitX=0.5;exitY=0;exitDx=0;exitDy=0;entryX=0.5;entryY=1;entryDx=0;entryDy=0;fontFamily=Architects Daughter;fontSource=https%3A%2F%2Ffonts.googleapis.com%2Fcss%3Ffamily%3DArchitects%2BDaughter;fontSize=16;strokeWidth=3;" edge="1" parent="1" source="uyNByUQVHI72EPawwl2X-1" target="CFwJvhHbsTwOAoUFKaDR-8">
          <mxGeometry relative="1" as="geometry" />
        </mxCell>
        <mxCell id="uyNByUQVHI72EPawwl2X-1" value="&lt;font style=&quot;font-size: 28px;&quot; face=&quot;FZJingLeiS-R-GB&quot;&gt;&lt;b&gt;DBMS&lt;/b&gt;&lt;/font&gt;" style="rounded=1;whiteSpace=wrap;html=1;sketch=1;hachureGap=4;jiggle=2;curveFitting=1;fontFamily=Architects Daughter;fontSource=https%3A%2F%2Ffonts.googleapis.com%2Fcss%3Ffamily%3DArchitects%2BDaughter;fontSize=20;fillColor=none;strokeWidth=3;" vertex="1" parent="1">
          <mxGeometry x="310" y="430" width="270" height="60" as="geometry" />
        </mxCell>
      </root>
    </mxGraphModel>
  </diagram>
</mxfile>
